<svg width="154" height="43" viewBox="0 0 154 43" fill="none" xmlns="http://www.w3.org/2000/svg">
<path d="M115.963 34.3545C115.258 34.7948 114.818 34.6187 114.818 33.7382C114.818 32.8577 116.491 30.3923 119.837 26.2539C118.78 25.7256 118.164 25.0212 117.9 24.1407C117.635 23.2602 118.164 22.6438 119.308 22.2916C120.541 21.9394 121.422 22.1155 122.038 22.6438L129.082 12.9583C129.698 12.0778 130.315 11.6376 131.019 11.8137C131.9 12.1659 132.252 12.7822 131.9 13.6627L128.378 32.7696C128.29 33.6501 128.025 34.0904 127.849 34.2665C127.497 34.3545 126.969 33.7382 126.264 32.3294C125.56 30.9206 125.736 27.9269 126.617 23.2602L127.585 17.8011L123.447 23.7885C124.68 25.4615 125.208 27.7508 125.032 30.4803C123.887 28.3671 122.742 27.1344 121.598 26.6942C119.22 30.0401 117.9 31.9772 117.547 32.5935C117.195 33.386 116.667 33.9143 115.963 34.3545Z" fill="#D53829"/>
<path d="M139.912 33.9142C139.56 34.7947 139.208 34.7947 139.032 34.0903C138.768 33.3859 138.504 32.7696 138.151 32.4173L138.415 30.5683C139.208 27.9268 140.088 25.4614 141.233 23.084H141.145C140.969 21.8513 140.441 21.323 139.56 21.4991C138.592 21.7633 137.623 22.5557 136.566 23.8765C135.51 25.1972 134.805 26.518 134.629 27.6626C133.749 31.4488 134.277 32.8576 136.39 32.0651C138.504 31.2727 138.592 31.5368 136.743 32.8576C134.893 34.1784 133.485 34.3545 132.516 33.2979C131.548 32.2412 131.019 31.1846 130.931 29.9519C130.843 28.7192 131.548 26.9582 132.956 24.4928C134.365 22.0274 136.126 20.4425 138.239 19.8261C138.327 19.8261 138.415 19.8261 138.504 19.7381C140.265 19.4739 141.497 19.7381 142.378 20.4425L142.554 20.5306L143.963 16.8324C144.227 16.04 144.051 15.2475 143.522 14.4551C144.315 14.6312 145.019 14.6312 145.636 14.5431C146.252 14.4551 146.78 14.4551 147.309 14.5431C147.837 14.6312 147.925 14.8073 147.661 15.2475C142.818 26.8702 140.265 33.0337 139.912 33.9142Z" fill="#D53829"/>
<path d="M149.51 20.3547C150.214 20.1786 151.006 20.1786 151.711 20.3547C152.503 20.5308 153.032 21.1472 153.384 22.1157L152.591 21.7635C151.623 21.6755 151.006 21.8516 150.654 22.2918C150.302 22.7321 150.038 23.4365 149.95 24.317C149.862 25.1975 149.95 26.4302 150.214 27.9271C150.39 29.6881 150.038 31.273 148.981 32.7698C148.013 34.2667 146.692 34.795 145.195 34.3547C143.698 33.9145 142.818 33.5623 142.554 33.122C142.289 32.6818 142.377 32.5057 142.642 32.5057C142.906 32.5057 143.434 32.5937 144.138 32.8579C144.843 33.034 145.459 32.9459 145.988 32.5057C146.428 32.0654 146.692 31.7132 146.692 31.273C146.692 30.9208 146.692 30.4805 146.692 30.0403C146.692 29.6 146.692 28.9837 146.604 28.1912C146.516 27.4868 146.34 26.5183 145.988 25.2855C145.635 24.0528 145.723 23.0843 146.164 22.3799C146.604 21.5874 147.132 21.0591 147.572 20.795C148.189 20.7069 148.805 20.5308 149.51 20.3547Z" fill="#D53829"/>
<path d="M54.7675 18.3294C54.2392 18.3294 53.7989 18.1533 53.4467 17.713C54.2392 17.2728 54.7675 16.1281 54.7675 15.1595C54.7675 14.1029 54.2392 13.1344 52.5662 13.1344C50.8932 13.1344 49.8366 14.0149 49.8366 15.864C49.8366 20.1784 56.5285 20.7948 56.5285 27.2224C56.5285 32.2413 52.4781 34.6187 48.1637 34.6187C44.8178 34.6187 41.9121 33.1218 41.9121 29.5118C41.9121 26.3419 44.2014 24.669 46.2266 24.669C47.2832 24.669 48.78 25.1092 48.8681 26.6061C47.2832 26.6061 45.4341 27.3105 45.4341 29.4237C45.4341 30.9206 46.4027 32.2413 48.2517 32.2413C50.2769 32.2413 51.6857 30.8325 51.6857 28.279C51.6857 23.1721 45.6102 21.4111 45.6102 17.0086C45.6102 13.9268 48.6039 11.7256 52.4781 11.7256C53.8869 11.7256 57.2329 11.9897 57.2329 15.2476C57.2329 17.0086 56.2643 18.3294 54.7675 18.3294Z" fill="#334155"/>
<path d="M72.7299 21.7636C71.6733 21.7636 70.8809 22.9963 70.4406 24.4931L68.4154 34.0026H64.189L66.3022 23.7887C66.3903 23.5246 66.3903 23.3485 66.3903 23.0843C66.3903 22.468 66.1261 21.7636 65.5098 21.7636C64.3651 21.7636 63.5727 22.9963 63.1324 24.4931L61.1073 34.0026H56.8809L60.0507 19.2101H64.2771L63.9249 20.795C65.1576 19.3862 66.4783 19.1221 67.5349 19.1221C69.1198 19.1221 70.2645 19.8265 70.6167 21.6755C72.0255 19.4743 73.6104 19.1221 74.7551 19.1221C76.6922 19.1221 78.0129 20.0906 78.0129 22.468C78.0129 24.8453 76.6041 28.4554 76.6041 30.1284C76.6041 30.8328 76.8683 31.3611 77.7488 31.3611C79.0695 31.3611 79.5978 30.3045 80.2142 28.7196H81.4469C79.7739 33.5623 77.4846 34.1787 75.8997 34.1787C73.3463 34.1787 72.3777 32.5057 72.3777 30.8328C72.3777 28.8076 73.6985 25.1975 73.6985 23.2604C73.7865 22.2919 73.4343 21.7636 72.7299 21.7636Z" fill="#334155"/>
<path d="M94.4782 19.1216L92.365 29.1593C92.2769 29.5115 92.2769 29.8637 92.2769 30.1279C92.2769 30.9203 92.6291 31.3606 93.5096 31.3606C94.6543 31.3606 95.4467 30.0398 95.887 28.543H97.1197C95.4467 33.3857 92.8052 34.0021 91.1323 34.0021C89.4593 34.0021 88.4027 33.0335 88.2266 31.2725C87.3461 32.5933 85.9373 34.0021 83.8241 34.0021C81.7989 34.0021 79.8618 32.7694 79.8618 29.2474C79.8618 25.2851 82.3272 18.8574 87.4341 18.8574C89.1071 18.8574 89.8115 19.4738 89.8115 20.3543V20.5304L90.1637 18.9455H94.4782V19.1216ZM84.2643 28.9832C84.2643 31.2725 85.2329 31.2725 85.7612 31.2725C86.6417 31.2725 87.8744 30.392 88.2266 28.631L89.6354 21.9392C89.6354 21.587 89.3713 20.7945 88.4027 20.7945C85.8492 20.8826 84.2643 26.1656 84.2643 28.9832Z" fill="#334155"/>
<path d="M102.138 19.1221L101.786 20.9711C102.843 20.0906 103.987 19.1221 105.396 19.1221C106.717 19.1221 107.421 20.1787 107.421 21.3233C107.421 22.3799 106.717 23.5246 105.308 23.5246C103.635 23.5246 104.516 21.5875 103.547 21.5875C102.667 21.5875 102.138 22.0277 101.346 22.7321L98.9686 34.0026H94.7422L97.912 19.2101H102.138V19.1221Z" fill="#334155"/>
<path d="M111.208 29.2474C111.12 29.5996 111.032 29.9518 111.032 30.304C111.032 30.9203 111.296 31.3606 112.088 31.3606C112.264 31.3606 112.617 31.3606 112.881 31.2725C112.088 33.826 110.768 34.1782 109.711 34.1782C107.598 34.1782 106.717 32.7694 106.717 30.8323C106.717 30.304 106.805 29.7757 106.893 29.2474L108.83 20.3543H107.862L108.126 19.2096H109.095L109.975 15.1593L114.378 14.543C114.378 14.543 113.937 16.5681 113.409 19.2096H115.17L114.906 20.3543H113.145L111.208 29.2474Z" fill="#334155"/>
<path d="M19.1069 42.0146C29.6594 42.0146 38.2138 33.4602 38.2138 22.9077C38.2138 12.3552 29.6594 3.80078 19.1069 3.80078C8.55446 3.80078 0 12.3552 0 22.9077C0 33.4602 8.55446 42.0146 19.1069 42.0146Z" fill="#6ECCB2"/>
<path d="M16.0253 39.2856L10.126 35.3233L12.7675 32.0654L18.0505 35.6755L16.0253 39.2856Z" fill="#FCC199"/>
<path d="M16.8704 39.2522L9.93848 34.5713L9.39647 35.3739L16.3284 40.0549L16.8704 39.2522Z" fill="white"/>
<path d="M7.396 38.0525C9.77335 39.9015 12.591 41.1342 15.5847 41.7506L16.7293 40.0776L9.157 34.9707L7.396 38.0525Z" fill="#4A859E"/>
<path d="M11.9746 33.21C11.9746 33.21 12.0627 38.7571 17.5218 36.4678L11.9746 33.21Z" fill="#C99979"/>
<path d="M19.3712 35.4991C17.7863 37.2601 15.1447 37.3481 13.4718 35.7632L12.8554 35.2349C11.1825 33.65 11.0064 31.0085 12.5913 29.3355L13.5598 28.2789C15.1447 26.5179 17.7863 26.4299 19.4592 28.0148L20.0756 28.5431C21.8366 30.128 21.9246 32.7695 20.3397 34.5305L19.3712 35.4991Z" fill="#FCC199"/>
<path d="M21.0442 33.3865L17.6983 34.5311L13.3838 27.0468L16.7297 25.9902L21.0442 33.3865Z" fill="#8F2A1E"/>
<path d="M21.3066 32.7104L17.041 34.1133L17.3436 35.0333L21.6092 33.6305L21.3066 32.7104Z" fill="#8F2A1E"/>
<path d="M17.0156 23.3943L11.5796 25.1846L12.4609 27.8607L17.8969 26.0705L17.0156 23.3943Z" fill="#D53829"/>
<path d="M16.9918 23.4597L11.5547 25.2471L11.9947 26.5854L17.4318 24.7981L16.9918 23.4597Z" fill="#9E2923"/>
<path d="M21.0443 33.6498C20.6921 34.0901 20.0758 34.0901 19.7236 33.8259C19.2833 33.4737 19.2833 32.8574 19.5475 32.5052L22.277 29.0712C22.6292 28.631 23.2456 28.631 23.5978 28.8951C24.038 29.2473 24.038 29.8637 23.7739 30.2159L21.0443 33.6498Z" fill="#FCC199"/>
<path d="M19.6357 32.329L23.51 28.7189C23.0697 28.5428 22.6295 28.6309 22.2773 28.9831L19.6357 32.329Z" fill="#EAB18B"/>
<path d="M19.7236 32.5931C19.7236 32.5931 19.2834 33.1214 19.8997 33.5617C20.5161 34.0019 20.9563 33.4736 20.9563 33.4736C20.9563 33.4736 21.2205 32.9453 20.7802 32.5931C20.1639 32.1529 19.7236 32.5931 19.7236 32.5931Z" fill="#F9DCB4"/>
<path d="M19.5475 32.5936C19.1953 33.1219 18.4909 33.1219 17.9626 32.7697C17.4343 32.4175 17.4343 31.7131 17.7865 31.1848L21.0443 27.1345C21.3965 26.6062 22.1009 26.6062 22.6292 26.9584C23.1575 27.3106 23.1575 28.015 22.8053 28.5433L19.5475 32.5936Z" fill="#FCC199"/>
<path d="M17.8745 31.0968L22.4531 26.7824C22.0129 26.5182 21.3965 26.6063 21.0443 27.0465L17.8745 31.0968Z" fill="#EAB18B"/>
<path d="M17.9626 31.3608C17.9626 31.3608 17.4343 31.9771 18.1388 32.5054C18.8432 33.0337 19.3715 32.4174 19.3715 32.4174C19.3715 32.4174 19.7237 31.801 19.1073 31.3608C18.491 30.8325 17.9626 31.3608 17.9626 31.3608Z" fill="#F9DCB4"/>
<path d="M17.8746 31.1847C17.5224 31.713 16.818 31.713 16.2897 31.3608C15.7614 31.0086 15.7614 30.3042 16.1136 29.7759L19.8998 25.0212C20.252 24.4929 20.9564 24.4929 21.4847 24.8451C22.013 25.1973 22.013 25.9017 21.6608 26.43L17.8746 31.1847Z" fill="#FCC199"/>
<path d="M16.2017 29.6878L21.3086 24.757C20.8683 24.4928 20.252 24.5809 19.8998 25.0211L16.2017 29.6878Z" fill="#EAB18B"/>
<path d="M16.2898 29.9515C16.2898 29.9515 15.7615 30.5679 16.4659 31.0962C17.1703 31.6245 17.6986 31.0081 17.6986 31.0081C17.6986 31.0081 18.0508 30.3918 17.4345 29.9515C16.73 29.5113 16.2898 29.9515 16.2898 29.9515Z" fill="#F9DCB4"/>
<path d="M16.3776 29.4237C16.0254 29.952 15.321 29.952 14.7927 29.5998C14.2644 29.2476 14.2644 28.5431 14.6166 28.0148L17.8744 23.9645C18.2266 23.4362 18.931 23.4362 19.4593 23.7884C19.9876 24.1406 19.9876 24.845 19.6354 25.3733L16.3776 29.4237Z" fill="#FCC199"/>
<path d="M14.7046 27.9269L19.2832 23.6125C18.843 23.3483 18.2266 23.4364 17.8744 23.8766L14.7046 27.9269Z" fill="#EAB18B"/>
<path d="M14.8806 28.1029C14.8806 28.1029 14.3523 28.7192 15.0567 29.2475C15.7611 29.7759 16.2894 29.1595 16.2894 29.1595C16.2894 29.1595 16.6416 28.5431 16.0253 28.1029C15.3209 27.6626 14.8806 28.1029 14.8806 28.1029Z" fill="#F9DCB4"/>
<path d="M16.0252 12.2545C14.9686 12.8708 11.2705 13.9274 10.9183 14.0155C10.5661 14.1035 7.13209 14.7199 5.98744 17.0972C4.75474 19.4746 5.63524 21.8519 5.63524 21.8519C5.63524 21.8519 6.33964 24.3173 8.717 25.5501C11.0944 26.7828 14.1761 25.1979 14.5283 25.1098C14.8805 25.0218 18.4906 23.6129 19.7233 23.5249C21.3082 23.3488 25.2705 23.4368 34.2516 27.9274L25.0944 0.103516C20.6038 8.9966 17.434 11.374 16.0252 12.2545Z" fill="#F1E6CA"/>
<path opacity="0.7" d="M16.2011 13.9274C20.5156 12.1664 24.3018 5.03433 25.6225 2.04062L25.0062 0.103516C20.5156 8.9966 17.3458 11.462 15.937 12.2545C14.8804 12.8708 11.1823 13.9274 10.8301 14.0155C10.5659 14.1035 7.13194 14.7199 5.98729 17.0972C5.72314 17.7136 5.54703 18.3299 5.45898 18.8582C7.48414 15.5123 12.0628 15.6004 16.2011 13.9274Z" fill="white"/>
<path d="M12.0629 13.6631C11.4466 13.8392 11.0063 13.9272 10.9183 14.0153C10.5661 14.1033 7.13209 14.7197 5.98744 17.097C4.75474 19.4744 5.63524 21.8518 5.63524 21.8518C5.63524 21.8518 6.33964 24.3172 8.717 25.5499C11.0944 26.7826 14.1761 25.1977 14.5283 25.1096C14.6164 25.1096 15.0566 24.9335 15.673 24.6694L12.0629 13.6631Z" fill="#D53829"/>
<path opacity="0.09" d="M23.8617 18.6818C22.0127 18.1535 17.258 18.4177 12.5913 20.0026C9.68563 20.9711 7.04412 19.9145 5.45922 18.946C5.19507 20.6189 5.72337 22.0278 5.72337 22.0278C5.72337 22.0278 6.42777 24.4932 8.80513 25.7259C11.1825 26.9586 14.2642 25.3737 14.6164 25.2856C14.9687 25.1976 18.5787 23.7888 19.8114 23.7007C21.3963 23.5246 25.3586 23.6127 34.3397 28.1032L32.5787 22.8202C29.9372 20.9711 26.9435 19.4743 23.8617 18.6818Z" fill="#334155"/>
<path d="M15.1447 32.7699L13.5598 28.3673C13.5598 28.3673 17.7862 25.0214 15.4089 23.4365L11.5347 26.9585C11.5347 26.9585 11.5347 30.8328 11.5347 31.6252" fill="#FCC199"/>
<path d="M32.0505 13.2225C34.604 20.8829 35.6606 27.4867 34.3398 27.9269C33.1071 28.3672 30.0254 22.4678 27.4719 14.7194C25.0065 6.97096 24.038 0.455235 25.2707 0.0149837C26.5034 -0.337218 29.5851 5.56215 32.0505 13.2225Z" fill="#D53829"/>
<path d="M33.4928 25.0497C34.232 24.8068 33.1943 19.629 31.1751 13.4848C29.1559 7.3405 26.9198 2.55652 26.1807 2.79943C25.4415 3.04234 26.4792 8.22016 28.4984 14.3644C30.5176 20.5087 32.7537 25.2927 33.4928 25.0497Z" fill="#92281B"/>
<path d="M27.208 10.3169C27.208 10.3169 27.8244 12.5182 28.3527 14.1031C28.969 15.688 29.7615 17.9773 29.7615 17.9773C30.9942 17.537 31.8747 16.4804 32.2269 15.3358C32.2269 15.2477 32.2269 15.2477 32.3149 15.1597C32.3149 15.0716 32.3149 15.0716 32.3149 14.9836C32.3149 14.8955 32.3149 14.8955 32.3149 14.8075C32.3149 14.7194 32.3149 14.7194 32.3149 14.6314C32.3149 14.5433 32.3149 14.5433 32.3149 14.4553C32.3149 14.3672 32.3149 14.2792 32.3149 14.1031V14.015C32.3149 13.927 32.3149 13.8389 32.3149 13.7509V13.6628C32.3149 13.5748 32.3149 13.4867 32.3149 13.3987V13.3106C32.3149 13.2226 32.2269 13.0465 32.2269 12.9584C31.4344 10.9333 29.3212 9.78861 27.208 10.3169Z" fill="#E5D8B6"/>
<path d="M27.208 10.3165L27.7363 11.9014C27.8244 11.9014 27.9124 11.8134 28.0005 11.8134C29.7615 11.2851 31.6105 12.1656 32.1388 13.9266C32.2269 14.1027 32.2269 14.3668 32.3149 14.5429C32.3149 14.4549 32.3149 14.3668 32.3149 14.1907V14.1027C32.3149 14.0146 32.3149 13.9266 32.3149 13.8385V13.7505C32.3149 13.6624 32.3149 13.5744 32.3149 13.4863V13.3983C32.3149 13.3102 32.2269 13.1341 32.2269 13.0461C31.4344 10.9329 29.3212 9.78822 27.208 10.3165Z" fill="#F0E7CA"/>
<path d="M14.2642 24.6687L15.4088 23.7002C15.4088 23.7002 15.8491 24.7568 15.0566 25.3732C15.0566 25.3732 14.4403 25.4612 14.2642 24.6687Z" fill="#F9DCB4"/>
<path d="M37.5976 12.0782L41.2077 10.9336C41.4718 10.8455 41.6479 11.0216 41.736 11.1977C41.824 11.4619 41.6479 11.638 41.4718 11.726L37.8618 12.8707C37.5976 12.9587 37.4215 12.7826 37.3335 12.6065C37.2454 12.3424 37.4215 12.1663 37.5976 12.0782Z" fill="#D53829"/>
<path d="M37.7739 13.8395C37.862 13.5754 38.0381 13.4873 38.3022 13.4873L41.2959 14.1037C41.5601 14.1917 41.6481 14.3678 41.6481 14.632C41.6481 14.8081 41.384 14.9842 41.2079 14.9842L38.2142 14.3678C38.0381 14.3678 37.95 14.1917 37.862 14.1037C37.7739 14.0156 37.7739 13.9276 37.7739 13.8395Z" fill="#D53829"/>
<path d="M36.9813 10.7573L39.0945 8.46801C39.2706 8.29191 39.5348 8.29191 39.7109 8.46801C39.887 8.64411 39.887 8.90826 39.7109 9.08436L37.5977 11.3737C37.4216 11.5498 37.1574 11.5498 36.9813 11.3737C36.8933 11.2856 36.8933 11.2856 36.8933 11.1976C36.8052 11.0215 36.8052 10.8454 36.9813 10.7573Z" fill="#D53829"/>
</svg>
